<svg xmlns="http://www.w3.org/2000/svg" style="display:none">
    <symbol id="icon-facebook" viewBox="0 0 24 24">
        <path d="M22 12.3038C22 6.74719 17.5229 2.24268 12 2.24268C6.47715 2.24268 2 6.74719 2 12.3038C2 17.3255 5.65684 21.4879 10.4375 22.2427V15.2121H7.89844V12.3038H10.4375V10.0872C10.4375 7.56564 11.9305 6.1728 14.2146 6.1728C15.3088 6.1728 16.4531 6.36931 16.4531 6.36931V8.84529H15.1922C13.95 8.84529 13.5625 9.6209 13.5625 10.4166V12.3038H16.3359L15.8926 15.2121H13.5625V22.2427C18.3432 21.4879 22 17.3257 22 12.3038Z" fill="#02060A"/>
    </symbol>
    <symbol id="icon-close" viewBox="0 0 24 24">
        <path d="M17.5996 5.92499C17.7639 5.92499 17.8659 5.97349 17.9463 6.05389C18.0265 6.1342 18.0751 6.23569 18.0752 6.3996C18.0752 6.5638 18.0266 6.66589 17.9463 6.74628L12.6924 12.0002L13.0459 12.3537L17.9463 17.2531C18.0267 17.3335 18.0752 17.4356 18.0752 17.5998C18.0752 17.7641 18.0267 17.8661 17.9463 17.9465C17.8659 18.0269 17.7639 18.0754 17.5996 18.0754C17.4355 18.0753 17.3333 18.0268 17.2529 17.9465L12.3535 13.0461L12 12.6926L6.74609 17.9465C6.66571 18.0268 6.56362 18.0754 6.39941 18.0754C6.23551 18.0753 6.13402 18.0267 6.05371 17.9465C5.97331 17.8661 5.9248 17.7641 5.9248 17.5998C5.92484 17.4356 5.97334 17.3335 6.05371 17.2531L11.3066 12.0002L10.9531 11.6467L6.05371 6.74628C5.97331 6.66587 5.9248 6.56387 5.9248 6.3996C5.92488 6.23556 5.97337 6.13423 6.05371 6.05389C6.13405 5.97356 6.23537 5.92506 6.39941 5.92499C6.56368 5.92499 6.66569 5.97349 6.74609 6.05389L11.6465 10.9533L12 11.3068L17.2529 6.05389C17.3333 5.97352 17.4355 5.92503 17.5996 5.92499Z" fill="#02060A" stroke="#02060A"/>
    </symbol>
    <symbol id="icon-arrow-forward" viewBox="0 0 24 24">
        <path d="M11.9951 4.68945C12.0661 4.69012 12.1279 4.70677 12.1895 4.75L12.251 4.80273L19.1992 11.751C19.2524 11.8051 19.2781 11.8473 19.29 11.876V11.877C19.3052 11.9133 19.3135 11.9534 19.3135 12.001C19.3134 12.0486 19.3048 12.0877 19.29 12.123V12.124C19.2782 12.1525 19.2527 12.1948 19.1992 12.249L12.2451 19.1973C12.1538 19.2875 12.0752 19.3135 11.9922 19.3135C11.9115 19.3134 11.8393 19.2889 11.7559 19.2031L11.751 19.1982L11.6992 19.1377C11.6571 19.0781 11.6426 19.02 11.6426 18.9551C11.6426 18.8904 11.6573 18.8328 11.6992 18.7734L11.751 18.7129L18.1123 12.3516H4.70215C4.58005 12.3515 4.50781 12.3164 4.44727 12.2559H4.44629C4.38542 12.195 4.35059 12.122 4.35059 12C4.35059 11.878 4.38542 11.805 4.44629 11.7441H4.44727C4.50782 11.6836 4.58005 11.6485 4.70215 11.6484H18.1123L11.7568 5.29297C11.6955 5.23162 11.6637 5.17322 11.6514 5.1084L11.6455 5.04102C11.6446 4.95107 11.6708 4.87748 11.751 4.79688L11.752 4.7959C11.8321 4.71531 11.9055 4.68868 11.9951 4.68945Z" fill="#02060A" stroke="#02060A"/>
    </symbol>
    <symbol id="icon-arrow-back" viewBox="0 0 24 24">
        <path d="M12.0078 4.68652C12.0934 4.68658 12.1668 4.71285 12.249 4.79492C12.3313 4.88086 12.3574 4.95797 12.3574 5.04395C12.3573 5.13078 12.3308 5.20478 12.249 5.28711L5.8877 11.6484H19.2979C19.4194 11.6485 19.4945 11.6838 19.5586 11.7471C19.6207 11.8084 19.6553 11.8801 19.6553 12C19.6553 12.1199 19.6207 12.1916 19.5586 12.2529C19.4945 12.3162 19.4194 12.3515 19.2979 12.3516H5.8877L12.2432 18.707V18.7061C12.3254 18.7885 12.3537 18.8653 12.3545 18.957V18.958C12.355 19.0245 12.3404 19.0829 12.2988 19.1426L12.2471 19.2041C12.1671 19.2851 12.0939 19.3113 12.0049 19.3105C11.9104 19.3096 11.8321 19.2796 11.749 19.1973L4.80078 12.249C4.74762 12.1949 4.72192 12.1527 4.70996 12.124V12.123C4.69485 12.0867 4.68652 12.0466 4.68652 11.999C4.68655 11.9514 4.69516 11.9123 4.70996 11.877V11.876C4.72183 11.8475 4.74729 11.8051 4.80078 11.751L11.751 4.80078C11.8414 4.71356 11.9211 4.68652 12.0078 4.68652Z" fill="#02060A" stroke="#02060A"/>
    </symbol>
    <symbol id="icon-menu" viewBox="0 0 24 24">
        <path d="M3.70234 18.2212C3.46184 18.2212 3.25975 18.139 3.09609 17.9745C2.93242 17.81 2.85059 17.6049 2.85059 17.3592C2.85059 17.1176 2.93242 16.9159 3.09609 16.7542C3.25975 16.5927 3.46184 16.512 3.70234 16.512H20.2978C20.5383 16.512 20.7414 16.5942 20.9071 16.7587C21.0728 16.9232 21.1556 17.1263 21.1556 17.368C21.1556 17.6137 21.0728 17.8172 20.9071 17.9787C20.7414 18.1404 20.5383 18.2212 20.2978 18.2212H3.70234ZM3.70234 12.8517C3.46184 12.8517 3.25975 12.7694 3.09609 12.6047C2.93242 12.4402 2.85059 12.2372 2.85059 11.9955C2.85059 11.754 2.93242 11.5524 3.09609 11.3907C3.25975 11.2291 3.46184 11.1482 3.70234 11.1482H20.2978C20.5383 11.1482 20.7414 11.2306 20.9071 11.3952C21.0728 11.5597 21.1556 11.7628 21.1556 12.0045C21.1556 12.246 21.0728 12.4476 20.9071 12.6092C20.7414 12.7709 20.5383 12.8517 20.2978 12.8517H3.70234ZM3.70234 7.488C3.46184 7.488 3.25975 7.40575 3.09609 7.24125C2.93242 7.07675 2.85059 6.87166 2.85059 6.626C2.85059 6.38433 2.93242 6.18275 3.09609 6.02125C3.25975 5.85958 3.46184 5.77875 3.70234 5.77875H20.2978C20.5383 5.77875 20.7414 5.861 20.9071 6.0255C21.0728 6.19 21.1556 6.39308 21.1556 6.63475C21.1556 6.88041 21.0728 7.08408 20.9071 7.24575C20.7414 7.40725 20.5383 7.488 20.2978 7.488H3.70234Z" fill="#02060A"/>
    </symbol>
    <symbol id="icon-star-filled" viewBox="0 0 24 24">
        <path d="M11.0709 3.61234C11.4146 2.79588 12.5854 2.79589 12.9291 3.61235L14.9579 8.43123C15.1029 8.77543 15.4306 9.01061 15.8067 9.0404L21.0727 9.45748C21.9649 9.52814 22.3267 10.6281 21.6469 11.2034L17.6348 14.5987C17.3482 14.8412 17.223 15.2218 17.3106 15.5843L18.5363 20.661C18.744 21.5211 17.7969 22.201 17.033 21.7401L12.5245 19.0196C12.2025 18.8252 11.7975 18.8252 11.4755 19.0196L6.96699 21.7401C6.20311 22.201 5.25596 21.5211 5.46363 20.661L6.68942 15.5843C6.77698 15.2218 6.65182 14.8412 6.36526 14.5987L2.35306 11.2034C1.67328 10.6281 2.03507 9.52814 2.92729 9.45748L8.19336 9.0404C8.5695 9.01061 8.89716 8.77543 9.04207 8.43123L11.0709 3.61234Z" fill="#02060A"/>
    </symbol>
    <symbol id="icon-add" viewBox="0 0 24 24">
        <path d="M11.1483 12.8518H5.70234C5.46184 12.8518 5.25975 12.7694 5.09609 12.6048C4.93242 12.4403 4.85059 12.2372 4.85059 11.9955C4.85059 11.754 4.93242 11.5524 5.09609 11.3908C5.25975 11.2291 5.46184 11.1483 5.70234 11.1483H11.1483V5.70226C11.1483 5.46226 11.2307 5.25935 11.3953 5.09351C11.5598 4.92751 11.7629 4.84451 12.0046 4.84451C12.2461 4.84451 12.4477 4.92751 12.6093 5.09351C12.771 5.25935 12.8518 5.46226 12.8518 5.70226V11.1483H18.2978C18.5378 11.1483 18.7408 11.2306 18.9066 11.3953C19.0726 11.5598 19.1556 11.7628 19.1556 12.0045C19.1556 12.246 19.0726 12.4476 18.9066 12.6093C18.7408 12.7709 18.5378 12.8518 18.2978 12.8518H12.8518V18.2978C12.8518 18.5383 12.7695 18.7403 12.6048 18.904C12.4403 19.0677 12.2373 19.1495 11.9956 19.1495C11.7541 19.1495 11.5525 19.0677 11.3908 18.904C11.2292 18.7403 11.1483 18.5383 11.1483 18.2978V12.8518Z" fill="#02060A"/>
    </symbol>
    <symbol id="icon-star-outline" viewBox="0 0 24 24">
        <path d="M12.0078 4.00098L14.0361 8.81934C14.328 9.51225 14.9837 9.97813 15.7275 10.0371L20.9854 10.4531L16.9893 13.835H16.9883C16.4157 14.3197 16.1618 15.086 16.3389 15.8193L17.5615 20.8848C17.5599 20.8857 17.5589 20.8872 17.5576 20.8877C17.5559 20.8869 17.5532 20.8858 17.5498 20.8838L13.041 18.1631C12.4014 17.7772 11.5986 17.7772 10.959 18.1631L6.4502 20.8838C6.44677 20.8858 6.4441 20.8869 6.44238 20.8877C6.44085 20.8871 6.43936 20.8859 6.4375 20.8848L7.66113 15.8193C7.8271 15.1321 7.61431 14.416 7.11523 13.9297L7.01172 13.835L3.01367 10.4531L8.27246 10.0371C9.01627 9.97814 9.67205 9.51246 9.96387 8.81934L11.9912 4.00098C11.9936 4.00054 11.9966 4 12 4C12.003 4 12.0056 4.00062 12.0078 4.00098Z" stroke="#02060A" fill="none" stroke-width="2"/>
    </symbol>
    <symbol id="icon-star-half" viewBox="0 0 24 24">
        <path d="M11.5312 3.80664C11.7032 3.39816 12.2968 3.39816 12.4688 3.80664L14.4971 8.625C14.7155 9.14358 15.2076 9.49471 15.7676 9.53906L21.0332 9.95605C21.4909 9.99232 21.6545 10.5412 21.3242 10.8213L17.3115 14.2168C16.8819 14.5804 16.6919 15.1542 16.8242 15.7021L18.0508 20.7783C18.1502 21.1902 17.6892 21.5518 17.291 21.3115H17.29L12.7832 18.5918C12.3023 18.3016 11.6977 18.3016 11.2168 18.5918L6.70898 21.3115C6.31078 21.5518 5.84983 21.1902 5.94922 20.7783L7.17578 15.7021C7.30809 15.1543 7.11814 14.5805 6.68848 14.2168L2.67578 10.8213C2.34544 10.5412 2.5091 9.99231 2.9668 9.95605L8.23242 9.53906C8.79243 9.49471 9.28456 9.14369 9.50293 8.625L11.5312 3.80664Z" fill="url(#paint0_linear_8242_16266)" stroke="#02060A"/>
        <defs>
            <linearGradient id="paint0_linear_8242_16266" x1="2" y1="12.3716" x2="22" y2="12.3716" gradientUnits="userSpaceOnUse">
                <stop offset="0.5" stop-color="#02060A"/>
                <stop offset="0.5" stop-color="#02060A" stop-opacity="0"/>
            </linearGradient>
        </defs>
    </symbol>
    <symbol id="icon-logo" viewBox="0 0 84 36">
        <path d="M14.7812 21.3346C14.7476 21.2688 14.7221 21.2181 14.6959 21.1678C14.3729 20.548 13.5948 20.1455 12.9038 20.2407C12.3105 20.3224 11.8161 20.8157 11.6424 21.5122C11.4552 22.2632 11.5904 22.9871 11.8605 23.691C12.3012 24.8389 12.9989 25.8207 13.8584 26.6895C14.4528 27.2903 14.9268 27.2802 15.5118 26.6689C16.3241 25.8202 16.9832 24.8673 17.4405 23.7812C17.7101 23.1413 17.9086 22.4822 17.9387 21.7824C17.9604 21.2771 17.8953 20.7903 17.6077 20.3565C17.2424 19.8057 16.6414 19.6434 16.0503 19.9342C15.6829 20.115 15.3924 20.385 15.1631 20.7199C15.0316 20.9119 14.9168 21.1151 14.7812 21.3346ZM26.2205 24.5613C26.207 25.5078 25.9937 26.4095 25.5579 27.2473C24.8183 28.6687 23.7484 29.7705 22.3159 30.509C20.904 31.237 19.4569 31.3203 17.9784 30.7408C17.3782 30.5054 16.7798 30.2625 16.1946 29.9927C15.1314 29.5025 14.0726 29.5072 12.9853 29.9144C12.2216 30.2004 11.4465 30.4612 10.6635 30.6877C9.85243 30.9224 9.01759 31.0081 8.1714 30.9115C7.43989 30.8281 6.8219 30.5041 6.28646 30.0137C5.60356 29.3884 5.0571 28.6583 4.71229 27.7973C4.27036 26.6938 4.37654 25.6292 5.01995 24.6238C5.52364 23.8365 6.20373 23.2084 6.86256 22.5587C7.34148 22.0864 7.81034 21.6014 8.2515 21.094C8.76045 20.5084 9.0644 19.8019 9.31633 19.0759C9.55021 18.4023 9.76256 17.7214 9.99337 17.0468C10.1601 16.5593 10.4661 16.1539 10.7684 15.743C11.4963 14.7538 12.5345 14.321 13.6809 14.0662C15.0398 13.7641 16.2241 14.1537 17.2346 15.0475C17.8564 15.5973 18.3946 16.2415 18.9734 16.8404C19.9592 17.8606 21.0049 18.8134 22.1765 19.6181C22.7596 20.0188 23.3717 20.3778 23.95 20.7848C24.7775 21.3673 25.4757 22.0741 25.9017 23.0123C26.1249 23.5037 26.213 24.0246 26.2205 24.5613Z" fill="#332C22"/>
        <path d="M12.8774 10.5274C12.8797 11.285 12.7454 12.1031 12.3864 12.8718C12.0022 13.6939 11.4463 14.3442 10.5322 14.5972C9.78001 14.8055 9.08558 14.6377 8.43823 14.2333C7.58656 13.7015 7.01062 12.9297 6.58229 12.042C5.96029 10.7529 5.72057 9.38905 5.84806 7.96383C5.92336 7.12193 6.16144 6.33498 6.63182 5.61919C7.44303 4.38479 8.90105 4.0359 10.1689 4.78706C10.9914 5.27444 11.5676 5.98594 12.0057 6.81701C12.6028 7.94961 12.8872 9.16093 12.8774 10.5274Z" fill="#332C22"/>
        <path d="M21.7312 8.27011C21.7325 9.81384 21.4476 11.1091 20.7454 12.2941C20.3528 12.9569 19.8507 13.5209 19.1564 13.8837C18.1415 14.414 17.0243 14.2197 16.2276 13.3904C15.5969 12.7339 15.2547 11.9348 15.0714 11.0603C14.7547 9.54829 14.9182 8.07136 15.4536 6.63481C15.7127 5.93955 16.0913 5.30328 16.6354 4.79C17.1368 4.31704 17.708 3.94657 18.4198 3.88745C19.3254 3.81223 20.0364 4.19603 20.6049 4.87435C21.1907 5.57354 21.4833 6.40268 21.6285 7.28773C21.6911 7.66933 21.7099 8.05812 21.7312 8.27011Z" fill="#332C22"/>
        <path d="M0.5 15.7117C0.51253 15.0222 0.644113 14.374 1.05404 13.8117C1.58963 13.0768 2.33951 12.8057 3.22546 12.8612C4.1219 12.9174 4.885 13.3047 5.57013 13.8509C6.7905 14.824 7.5976 16.0663 7.91869 17.6035C8.06084 18.2834 8.0714 18.9698 7.83351 19.6322C7.42456 20.771 6.49163 21.3591 5.27574 21.2649C4.51928 21.2064 3.85345 20.9039 3.24251 20.4733C1.92559 19.545 1.07772 18.2832 0.648406 16.7408C0.55623 16.4097 0.547284 16.0553 0.5 15.7117Z" fill="#332C22"/>
        <path d="M28.2074 13.561C28.0034 15.7025 27.1322 17.3578 25.4427 18.5501C24.9735 18.8812 24.4458 19.0728 23.8695 19.1312C22.8949 19.2301 22.0087 18.6814 21.6423 17.7425C21.3203 16.9172 21.339 16.0726 21.5416 15.2323C21.9314 13.6148 22.8009 12.3082 24.1673 11.3503C24.7721 10.9263 25.4584 10.7532 26.1963 10.8148C27.0541 10.8863 27.7793 11.5299 28.03 12.4764C28.1314 12.8591 28.1602 13.2608 28.2074 13.561Z" fill="#332C22"/>
        <path d="M68.3739 20.6638H70.3452L67.7461 23.8086L70.5741 27.2232H68.544L65.8627 23.8966V27.2232H64.0732V20.6638H65.8627V23.8496L68.3739 20.6638Z" fill="#332C22"/>
        <path d="M62.8356 23.9317C62.8356 24.4794 62.7613 24.9644 62.6126 25.3868C62.4679 25.8092 62.2547 26.1671 61.9731 26.4605C61.6954 26.7499 61.359 26.969 60.964 27.1176C60.5728 27.2663 60.1308 27.3406 59.638 27.3406C59.1764 27.3406 58.752 27.2663 58.3648 27.1176C57.9815 26.969 57.6471 26.7499 57.3615 26.4605C57.0799 26.1671 56.8609 25.8092 56.7044 25.3868C56.5519 24.9644 56.4756 24.4794 56.4756 23.9317C56.4756 23.2042 56.6047 22.5882 56.8628 22.0836C57.121 21.579 57.4886 21.1957 57.9658 20.9336C58.443 20.6716 59.0122 20.5405 59.6732 20.5405C60.2873 20.5405 60.831 20.6716 61.3043 20.9336C61.7815 21.1957 62.155 21.579 62.4249 22.0836C62.6987 22.5882 62.8356 23.2042 62.8356 23.9317ZM58.3003 23.9317C58.3003 24.362 58.3472 24.7238 58.4411 25.0172C58.535 25.3105 58.6816 25.5315 58.8811 25.6802C59.0806 25.8288 59.3407 25.9031 59.6615 25.9031C59.9783 25.9031 60.2345 25.8288 60.4301 25.6802C60.6295 25.5315 60.7743 25.3105 60.8642 25.0172C60.9581 24.7238 61.005 24.362 61.005 23.9317C61.005 23.4976 60.9581 23.1377 60.8642 22.8522C60.7743 22.5627 60.6295 22.3457 60.4301 22.2009C60.2306 22.0562 59.9705 21.9839 59.6497 21.9839C59.1764 21.9839 58.8322 22.1462 58.6171 22.4708C58.4059 22.7955 58.3003 23.2824 58.3003 23.9317Z" fill="#332C22"/>
        <path d="M55.2369 20.6638V27.2232H53.4416V22.0073H51.0654V27.2232H49.2759V20.6638H55.2369Z" fill="#332C22"/>
        <path d="M44.9392 20.5288C45.8193 20.5288 46.494 20.7205 46.9634 21.1038C47.4327 21.4871 47.6674 22.0699 47.6674 22.8522V27.2232H46.4177L46.0716 26.3314H46.0246C45.8369 26.5661 45.6452 26.7578 45.4496 26.9064C45.2541 27.0551 45.0292 27.1646 44.7749 27.235C44.5207 27.3054 44.2117 27.3406 43.8479 27.3406C43.4607 27.3406 43.1126 27.2663 42.8036 27.1176C42.4985 26.969 42.2579 26.7421 42.0819 26.437C41.9059 26.128 41.8179 25.7369 41.8179 25.2636C41.8179 24.5674 42.0623 24.055 42.5513 23.7264C43.0402 23.3939 43.7736 23.2101 44.7515 23.1749L45.8897 23.1397V22.8522C45.8897 22.508 45.7997 22.2557 45.6198 22.0953C45.4399 21.935 45.1895 21.8548 44.8688 21.8548C44.552 21.8548 44.241 21.8998 43.9359 21.9897C43.6308 22.0797 43.3257 22.1931 43.0206 22.33L42.4281 21.1214C42.7762 20.9376 43.1654 20.7928 43.5956 20.6872C44.0298 20.5816 44.4777 20.5288 44.9392 20.5288ZM45.8897 24.1841L45.1974 24.2075C44.6185 24.2232 44.2156 24.3268 43.9887 24.5185C43.7658 24.7101 43.6543 24.9624 43.6543 25.2753C43.6543 25.5491 43.7345 25.7447 43.8948 25.8621C44.0552 25.9755 44.2645 26.0322 44.5226 26.0322C44.906 26.0322 45.2286 25.9188 45.4907 25.6919C45.7567 25.465 45.8897 25.1424 45.8897 24.7238V24.1841Z" fill="#332C22"/>
        <path d="M40.4683 27.2232H38.6554V20.1592H36.5549C36.508 20.5269 36.4571 20.9278 36.4024 21.3619C36.3476 21.7961 36.2909 22.2342 36.2322 22.6762C36.1736 23.1182 36.111 23.5387 36.0445 23.9376C35.9819 24.3366 35.9193 24.6867 35.8567 24.9879C35.755 25.4885 35.6162 25.9149 35.4402 26.2669C35.2681 26.615 35.0314 26.881 34.7302 27.0648C34.433 27.2487 34.0438 27.3406 33.5627 27.3406C33.4023 27.3406 33.2478 27.3289 33.0992 27.3054C32.9544 27.2819 32.8195 27.2506 32.6943 27.2115V25.7212C32.796 25.7565 32.8977 25.7858 32.9994 25.8093C33.1011 25.8288 33.2126 25.8386 33.3339 25.8386C33.4903 25.8386 33.6194 25.7877 33.7211 25.686C33.8267 25.5804 33.9206 25.4025 34.0027 25.1521C34.0849 24.8979 34.167 24.5478 34.2491 24.1019C34.2843 23.9063 34.3313 23.6306 34.3899 23.2746C34.4486 22.9148 34.5151 22.4943 34.5894 22.0132C34.6637 21.5282 34.74 21.0001 34.8182 20.4291C34.9004 19.858 34.9786 19.2635 35.0529 18.6454H40.4683V27.2232Z" fill="#332C22"/>
        <path d="M80.7717 9.54327C81.6518 9.54327 82.3265 9.73493 82.7959 10.1183C83.2653 10.5016 83.5 11.0844 83.5 11.8667V16.2377H82.2502L81.9041 15.3459H81.8571C81.6694 15.5806 81.4777 15.7722 81.2822 15.9209C81.0866 16.0695 80.8617 16.179 80.6074 16.2494C80.3532 16.3198 80.0442 16.3551 79.6804 16.3551C79.2932 16.3551 78.9451 16.2807 78.6361 16.1321C78.331 15.9835 78.0904 15.7566 77.9144 15.4515C77.7384 15.1425 77.6504 14.7514 77.6504 14.2781C77.6504 13.5818 77.8949 13.0694 78.3838 12.7409C78.8727 12.4084 79.6061 12.2246 80.584 12.1894L81.7222 12.1542V11.8667C81.7222 11.5225 81.6322 11.2702 81.4523 11.1098C81.2724 10.9494 81.0221 10.8693 80.7013 10.8693C80.3845 10.8693 80.0735 10.9142 79.7684 11.0042C79.4633 11.0942 79.1583 11.2076 78.8532 11.3445L78.2606 10.1359C78.6087 9.95202 78.9979 9.8073 79.4281 9.70169C79.8623 9.59608 80.3102 9.54327 80.7717 9.54327ZM81.7222 13.1985L81.0299 13.222C80.451 13.2376 80.0481 13.3413 79.8212 13.5329C79.5983 13.7246 79.4868 13.9769 79.4868 14.2898C79.4868 14.5636 79.567 14.7592 79.7274 14.8765C79.8877 14.99 80.097 15.0467 80.3552 15.0467C80.7385 15.0467 81.0612 14.9332 81.3232 14.7064C81.5892 14.4795 81.7222 14.1568 81.7222 13.7383V13.1985Z" fill="#332C22"/>
        <path d="M75.1854 9.67822H77.1568L74.5576 12.823L77.3856 16.2377H75.3555L72.6743 12.911V16.2377H70.8848V9.67822H72.6743V12.8641L75.1854 9.67822Z" fill="#332C22"/>
        <path d="M64.9594 9.67822V12.2011H67.4588V9.67822H69.2483V16.2377H67.4588V13.5329H64.9594V16.2377H63.1699V9.67822H64.9594Z" fill="#332C22"/>
        <path d="M56.4808 9.67822V12.2715C56.4808 12.4045 56.4749 12.5727 56.4632 12.7761C56.4554 12.9756 56.4437 13.179 56.428 13.3863C56.4124 13.5936 56.3967 13.7794 56.3811 13.9437C56.3654 14.1079 56.3537 14.2194 56.3459 14.2781L59.3733 9.67822H61.5266V16.2377H59.7958V13.621C59.7958 13.4058 59.8036 13.1692 59.8192 12.911C59.8349 12.649 59.8525 12.4025 59.872 12.1718C59.8916 11.941 59.9053 11.7669 59.9131 11.6496L56.8974 16.2377H54.75V9.67822H56.4808Z" fill="#332C22"/>
        <path d="M53.7644 11.0218H51.6171V16.2377H49.8276V11.0218H47.6743V9.67822H53.7644V11.0218Z" fill="#332C22"/>
        <path d="M44.0012 9.54327C44.8813 9.54327 45.556 9.73493 46.0254 10.1183C46.4948 10.5016 46.7294 11.0844 46.7294 11.8667V16.2377H45.4797L45.1336 15.3459H45.0866C44.8989 15.5806 44.7072 15.7722 44.5117 15.9209C44.3161 16.0695 44.0912 16.179 43.8369 16.2494C43.5827 16.3198 43.2737 16.3551 42.9099 16.3551C42.5227 16.3551 42.1746 16.2807 41.8656 16.1321C41.5605 15.9835 41.3199 15.7566 41.1439 15.4515C40.9679 15.1425 40.8799 14.7514 40.8799 14.2781C40.8799 13.5818 41.1243 13.0694 41.6133 12.7409C42.1022 12.4084 42.8356 12.2246 43.8135 12.1894L44.9517 12.1542V11.8667C44.9517 11.5225 44.8617 11.2702 44.6818 11.1098C44.5019 10.9494 44.2515 10.8693 43.9308 10.8693C43.614 10.8693 43.303 10.9142 42.9979 11.0042C42.6928 11.0942 42.3877 11.2076 42.0827 11.3445L41.4901 10.1359C41.8382 9.95202 42.2274 9.8073 42.6576 9.70169C43.0918 9.59608 43.5397 9.54327 44.0012 9.54327ZM44.9517 13.1985L44.2594 13.222C43.6805 13.2376 43.2776 13.3413 43.0507 13.5329C42.8278 13.7246 42.7163 13.9769 42.7163 14.2898C42.7163 14.5636 42.7965 14.7592 42.9569 14.8765C43.1172 14.99 43.3265 15.0467 43.5846 15.0467C43.968 15.0467 44.2907 14.9332 44.5527 14.7064C44.8187 14.4795 44.9517 14.1568 44.9517 13.7383V13.1985Z" fill="#332C22"/>
        <path d="M40.6161 16.2377H38.5391L36.5443 12.9932L34.5495 16.2377H32.6016L35.4471 11.8139L32.7834 7.65991H34.79L36.6382 10.746L38.4511 7.65991H40.4108L37.7177 11.9136L40.6161 16.2377Z" fill="#332C22"/>
    </symbol>
    <symbol id="icon-instagram" viewBox="0 0 24 24">
        <path d="M11.9988 4.62091C14.4032 4.62091 14.6878 4.63159 15.6332 4.67378C16.5123 4.71258 16.9864 4.85994 17.303 4.98311C17.7215 5.14509 18.0235 5.34194 18.3362 5.65465C18.6528 5.97129 18.8458 6.26994 19.0111 6.68838C19.1343 7.00503 19.2816 7.48253 19.3204 8.35822C19.3626 9.3076 19.3733 9.59218 19.3733 11.9932C19.3733 14.3942 19.3626 14.6821 19.3204 15.6281C19.2816 16.5072 19.1343 16.9813 19.0111 17.298C18.8491 17.7164 18.6528 18.0184 18.3396 18.3311C18.0229 18.6478 17.7243 18.8407 17.3064 19.0061C16.9898 19.1292 16.5117 19.2766 15.6366 19.3154C14.6872 19.3576 14.4026 19.3683 12.0016 19.3683C9.60062 19.3683 9.31266 19.3576 8.36666 19.3154C7.48759 19.2766 7.01346 19.1292 6.69682 19.0061C6.27838 18.8441 5.97635 18.6478 5.66308 18.3345C5.34644 18.0179 5.15353 17.7192 4.98817 17.3013C4.865 16.9847 4.71765 16.5066 4.67884 15.6315C4.63666 14.6821 4.62597 14.3975 4.62597 11.9965C4.62597 9.59556 4.63666 9.3076 4.67884 8.3616C4.71765 7.48253 4.865 7.0084 4.98817 6.69176C5.15015 6.27331 5.347 5.97129 5.65971 5.65802C5.97635 5.34137 6.275 5.14846 6.69344 4.98311C7.01009 4.85994 7.48759 4.71258 8.36328 4.67378C9.30872 4.63159 9.59387 4.62091 11.9982 4.62091H11.9988ZM11.9988 3.00056C9.55563 3.00056 9.25023 3.01125 8.29017 3.05343C7.33405 3.09561 6.67657 3.25028 6.1074 3.47187C5.51348 3.70359 5.01067 4.00955 4.5118 4.51236C4.00899 5.01179 3.70303 5.51404 3.47131 6.10459C3.24972 6.6777 3.09505 7.33123 3.05287 8.28736C3.01069 9.25079 3 9.55619 3 11.9994C3 14.4425 3.01069 14.7479 3.05287 15.708C3.09505 16.6641 3.24972 17.3216 3.47131 17.8908C3.70359 18.4847 4.00899 18.9875 4.5118 19.4864C5.01067 19.9852 5.51348 20.2951 6.10402 20.5235C6.67713 20.7451 7.33067 20.8997 8.28679 20.9419C9.24629 20.9841 9.55225 20.9948 11.9954 20.9948C14.4386 20.9948 14.7446 20.9841 15.7041 20.9419C16.6602 20.8997 17.3177 20.7451 17.8868 20.5235C18.4774 20.2951 18.9802 19.9858 19.4791 19.4864C19.9779 18.9869 20.2878 18.4847 20.5162 17.8941C20.7378 17.321 20.8924 16.6675 20.9346 15.7114C20.9768 14.7519 20.9875 14.4459 20.9875 12.0027C20.9875 9.55956 20.9768 9.25417 20.9346 8.29411C20.8924 7.33798 20.7378 6.68051 20.5162 6.11133C20.2946 5.51348 19.9886 5.01123 19.4864 4.5118C18.9875 4.01293 18.4847 3.70303 17.8941 3.47469C17.321 3.25309 16.6675 3.09842 15.7114 3.05624C14.7485 3.01069 14.4425 3 11.9994 3L11.9988 3.00056Z" fill="#0D0B0A"/>
        <path d="M11.9976 7.37671C9.44585 7.37671 7.375 9.447 7.375 11.9993C7.375 14.5516 9.44529 16.6219 11.9976 16.6219C14.5499 16.6219 16.6201 14.5516 16.6201 11.9993C16.6201 9.44756 14.5499 7.37671 11.9976 7.37671ZM11.9976 14.9976C10.3418 14.9976 8.99928 13.6551 8.99928 11.9993C8.99928 10.3435 10.3418 9.00099 11.9976 9.00099C13.6533 9.00099 14.9959 10.3435 14.9959 11.9993C14.9959 13.6551 13.6533 14.9976 11.9976 14.9976Z" fill="#0D0B0A"/>
        <path d="M17.8812 7.19404C17.8812 7.79021 17.3981 8.27333 16.8019 8.27333C16.2058 8.27333 15.7227 7.79021 15.7227 7.19404C15.7227 6.59787 16.2058 6.11475 16.8019 6.11475C17.3981 6.11475 17.8812 6.59787 17.8812 7.19404Z" fill="#0D0B0A"/>
    </symbol>
    <symbol id="icon-paw" viewBox="0 0 32 32">
        <path d="M16 14c-4.961 0-11.944 7.669-11.944 12.512-0.055 2.181 1.616 3.488 4.431 3.488 3.050 0 5.069-1.569 7.512-1.569 2.469 0 4.494 1.569 7.512 1.569 2.756 0 4.484-1.305 4.484-3.484-0.052-4.841-7.034-12.516-11.996-12.516zM6.8 13.213c-0.648-2.164-2.656-3.57-4.476-3.133s-2.768 2.545-2.119 4.707c0.648 2.169 2.656 3.575 4.476 3.138s2.763-2.55 2.119-4.713zM12.094 11.912c1.929-0.508 2.898-3.069 2.156-5.836s-2.906-4.444-4.843-3.992c-1.929 0.508-2.898 3.069-2.156 5.836 0.743 2.711 2.906 4.504 4.843 3.992zM29.681 10.081c-1.82-0.381-3.828 0.969-4.476 3.133s0.297 4.273 2.117 4.711c1.82 0.381 3.82-0.969 4.476-3.133 0.646-2.167-0.354-4.273-2.117-4.711zM19.906 11.912c1.881 0.508 4.101-1.281 4.843-3.992s-0.227-5.328-2.156-5.836c-1.881-0.508-4.101 1.281-4.843 3.992-0.744 2.711 0.225 5.329 2.156 5.836z"></path>
    </symbol>
</svg>
